# Blender 5.1.2
# www.blender.org
o GreatDodecahedron
v 0.000000 -1.701000 -1.051000
v 0.000000 1.701000 -1.051000
v 1.051000 0.000000 -1.701000
v -1.701000 1.051000 0.000000
v -1.701000 -1.051000 0.000000
v -1.051000 0.000000 1.701000
v 1.701000 -1.051000 0.000000
v 0.000000 -1.701000 1.051000
v 1.701000 1.051000 0.000000
v 0.000000 1.701000 1.051000
v 1.051000 0.000000 1.701000
v -1.051000 0.000000 -1.701000
vn -0.5260 -0.0000 -0.8505
vn -0.5256 -0.0000 -0.8507
vn -0.5257 0.0002 -0.8507
vn -0.5258 -0.0000 -0.8506
vn -0.5257 -0.0002 -0.8507
vn -0.0000 0.8505 0.5260
vn -0.0000 0.8507 0.5256
vn 0.5256 -0.0000 -0.8507
vn 0.5258 0.0002 -0.8506
vn 0.5257 -0.0002 -0.8507
vn -0.8507 0.5256 -0.0000
vn -0.8506 0.5258 0.0002
vn -0.8507 0.5257 -0.0002
vn 0.8507 -0.5256 -0.0000
vn 0.8505 -0.5260 -0.0000
vn 0.8507 0.5257 0.0002
vn 0.8506 0.5258 -0.0002
vn 0.8507 0.5256 -0.0000
vn 0.0002 -0.8507 0.5257
vn -0.0000 -0.8506 0.5258
vn -0.0002 -0.8507 0.5257
vn 0.5257 0.0002 -0.8507
vn 0.5258 -0.0002 -0.8506
vn 0.0002 0.8507 0.5257
vn -0.0002 0.8506 0.5258
vn 0.8505 0.5260 -0.0000
vn -0.0000 -0.8505 0.5260
vn -0.0000 -0.8507 0.5256
s 0
f 1//1 2//1 3//1
f 1//2 4//2 2//2
f 1//2 5//2 4//2
f 6//3 7//3 8//3
f 6//4 9//4 7//4
f 6//5 10//5 9//5
f 4//6 9//6 2//6
f 4//7 11//7 9//7
f 4//7 6//7 11//7
f 7//8 2//8 9//8
f 7//9 12//9 2//9
f 7//10 1//10 12//10
f 2//11 6//11 10//11
f 2//12 5//12 6//12
f 2//13 12//13 5//13
f 11//14 8//14 1//14
f 11//14 1//14 3//14
f 11//15 3//15 9//15
f 10//16 11//16 7//16
f 10//17 7//17 3//17
f 10//18 3//18 2//18
f 10//19 4//19 12//19
f 10//20 12//20 3//20
f 10//21 3//21 9//21
f 5//22 11//22 8//22
f 5//23 10//23 11//23
f 5//8 4//8 10//8
f 12//24 5//24 8//24
f 12//25 8//25 7//25
f 12//7 7//7 3//7
f 12//18 8//18 1//18
f 12//18 6//18 8//18
f 12//26 4//26 6//26
f 5//27 1//27 7//27
f 5//28 7//28 11//28
f 5//28 11//28 6//28
